<svg xmlns="http://www.w3.org/2000/svg" xmlns:xlink="http://www.w3.org/1999/xlink" viewBox="0 0 410 179"><defs><style>.cls-1{isolation:isolate;}.cls-2{fill:#a64767;}.cls-3{fill:url(#New_Gradient_Swatch_1);}.cls-4{mix-blend-mode:color-burn;fill:url(#radial-gradient);}.cls-5,.cls-6,.cls-7,.cls-8,.cls-9{mix-blend-mode:color-dodge;}.cls-5{fill:url(#linear-gradient);}.cls-6{fill:url(#radial-gradient-2);}.cls-7{fill:url(#radial-gradient-3);}.cls-8{fill:url(#linear-gradient-2);}.cls-9{fill:url(#linear-gradient-3);}.cls-10{mix-blend-mode:multiply;fill:url(#linear-gradient-4);}.cls-11,.cls-12{fill:#fff;}.cls-11{opacity:0.59;}.cls-12{font-size:53.83px;font-family:LHFUncialCaps, LHF Uncial Caps;}.cls-13{letter-spacing:-0.15em;}</style><radialGradient id="New_Gradient_Swatch_1" cx="-580.25" cy="37.86" r="98.93" gradientTransform="translate(110.77 -1104.37) rotate(-90) scale(2.3 1)" gradientUnits="userSpaceOnUse"><stop offset="0" stop-color="#d95958"/><stop offset="1" stop-color="#d05684"/></radialGradient><radialGradient id="radial-gradient" cx="-477.42" cy="390.56" r="454.81" gradientTransform="translate(1301.79 103.64) scale(2.22 0.92)" gradientUnits="userSpaceOnUse"><stop offset="0" stop-color="#231f20"/><stop offset="0.1" stop-color="#292526"/><stop offset="0.24" stop-color="#393637"/><stop offset="0.39" stop-color="#545152"/><stop offset="0.56" stop-color="#7a7878"/><stop offset="0.74" stop-color="#aba9aa"/><stop offset="0.92" stop-color="#e5e5e5"/><stop offset="1" stop-color="#fff"/></radialGradient><linearGradient id="linear-gradient" x1="198.49" y1="262.08" x2="198.49" y2="83.95" gradientUnits="userSpaceOnUse"><stop offset="0" stop-color="#fff"/><stop offset="0.08" stop-color="#e5e5e5"/><stop offset="0.26" stop-color="#aba9aa"/><stop offset="0.44" stop-color="#7a7878"/><stop offset="0.61" stop-color="#545152"/><stop offset="0.76" stop-color="#393637"/><stop offset="0.9" stop-color="#292526"/><stop offset="1" stop-color="#231f20"/></linearGradient><radialGradient id="radial-gradient-2" cx="-416.28" cy="51.21" r="17.92" gradientTransform="translate(1334.29) scale(2.25 1)" xlink:href="#linear-gradient"/><radialGradient id="radial-gradient-3" cx="208.05" cy="-22.18" r="54.32" gradientTransform="translate(-13.41 117.51) scale(0.99 0.91)" xlink:href="#linear-gradient"/><linearGradient id="linear-gradient-2" x1="-246.39" y1="79.23" x2="100.79" y2="79.23" gradientUnits="userSpaceOnUse"><stop offset="0" stop-color="#fff"/><stop offset="0.09" stop-color="#f5f5f5"/><stop offset="0.25" stop-color="#dbdbdb"/><stop offset="0.46" stop-color="#b1b0b0"/><stop offset="0.7" stop-color="#777475"/><stop offset="0.97" stop-color="#2d292a"/><stop offset="1" stop-color="#231f20"/></linearGradient><linearGradient id="linear-gradient-3" x1="243.81" y1="78.22" x2="752.79" y2="78.22" gradientUnits="userSpaceOnUse"><stop offset="0" stop-color="#231f20"/><stop offset="0.03" stop-color="#2d292a"/><stop offset="0.3" stop-color="#777475"/><stop offset="0.54" stop-color="#b1b0b0"/><stop offset="0.75" stop-color="#dbdbdb"/><stop offset="0.91" stop-color="#f5f5f5"/><stop offset="1" stop-color="#fff"/></linearGradient><linearGradient id="linear-gradient-4" x1="200.59" y1="66.64" x2="208.31" y2="278.91" gradientUnits="userSpaceOnUse"><stop offset="0" stop-color="#fff"/><stop offset="0.09" stop-color="#e8e7e7"/><stop offset="0.42" stop-color="#949293"/><stop offset="0.7" stop-color="#575455"/><stop offset="0.9" stop-color="#312e2f"/><stop offset="1" stop-color="#231f20"/></linearGradient></defs><title>button</title><g class="cls-1"><g id="Layer_1" data-name="Layer 1"><rect class="cls-2" x="16.39" y="24.46" width="367.6" height="129.91" rx="17.18"/><rect class="cls-3" x="138.32" y="-91.3" width="123.73" height="361.42" rx="15.18" transform="translate(289.6 -110.77) rotate(90)"/><path class="cls-4" d="M42.53,123.21c2.25.17,4.51.45,6.69.75,10.41,1.43,20.13,5,30.64,6.7,38,6,69.81,5.34,102.32-17.69,19.2-13.6,104-33.56,119.4-51.29,10.08-11.62,21.39-23.08,36-28s33.14-1.24,40.85,12.07c6.18,10.68,3.17,21.38,2.75,32.71-.51,13.52,1.57,27.57,1.92,41.14.1,4.18-3.86,11.15-5.46,15-1.38,3.3-3.18,6.57-6.11,8.85-6.77,5.27-18.21,5.64-26.56,6.36-10.81.92-21.56,2.61-32.45,2.44-49.85-.79-168.23,1.19-218.11.73-7.77-.07-16.29.16-23.87-1.54-6.9-1.54-13.09-1.19-20.26-1.49-6.12-.25-12.36-1.3-17.6-4.22s-9.34-8-9.64-13.63a7.69,7.69,0,0,1,1.1-4.71C27.21,122.75,37.48,122.85,42.53,123.21Z"/><path class="cls-5" d="M149.16,151.28c-12.78.33-25.53.86-38.33.91s-25.87-.64-38.75-1.72c-6.45-.54-12.88-1.23-19.32-1.88-4.87-.49-9.48.48-14.2-1.06-5.12-1.68-10.31-3.86-13.93-7.85-4.3-4.75-7.46-15.25-3.66-21.14,4.14-6.43,15.54-3.89,21.68-2.46,8.24,1.92,16.43,4,24.65,6,7,1.7,13.64,5.14,20.65,5.91l39.32,4.36c8.22.91,16.63,1.81,24.7,0-11.13,2.32-22.53,2-33.82,1.74-10.68-.21-21.14.35-31.75-1.06-6.43-.85-28-10-32.81-3.09C42.81,145.39,98,143.66,101.44,143.69l68.08.74c32.29.35,143.15,4,172.66-11.65,11.07-5.89,20.42-15.66,24-27.68,2.42-8.17,2.1-16.91,3.91-25.24.42-2,2.19-4.41,3.84-3.28a3.16,3.16,0,0,1,1,2.15,156.38,156.38,0,0,1,2.77,29c0,8.14-.63,16.43-3.63,24s-8.64,14.38-16.25,17.27a43,43,0,0,1-11.6,2.17C303.84,154.82,191.87,150.17,149.16,151.28Z"/><path class="cls-6" d="M378.21,59.39c.22-1.3.42-8.3-6.9-6.6-3.68.86-.62,5.36.08,6.7a4.09,4.09,0,0,0,4,2C377.35,61.32,378.07,60.26,378.21,59.39Z"/><path class="cls-7" d="M21.88,42.05C29.71,21.17,58.22,23.37,76,25.39c29.42,3.33,59.77,1.53,89.41,1.64-13.66,3.84-26.77,10.79-35.89,21.65-18.38,21.88-10.66,48.27,6.53,68.26,15.57,18.12,39.24,26.7,61.95,34.13-16.74,3.9-34.08-.86-51.13-3-24.86-3.19-49.27,1.75-74.16-.2-10.43-.82-21.07-2-30.51-6.33-20.22-9.38-22-29.66-22.94-48.85-.58-11.74-1-23.52,0-35.25C19.79,51.79,20.21,46.56,21.88,42.05Z"/><path class="cls-8" d="M32.83,34.13c-4.78,3.5-8.17,9.22-9.58,18.66C21.38,65.26,20.39,77.37,19.75,90c-.71,13.88-.12,28.43,2.8,42,.4-3.57.83-7.26,2.63-10.37,4.8-8.25,21.76-3,29.73-2.85a24.58,24.58,0,0,1-9.22-6.08,5.15,5.15,0,0,1-1-7.11C49.84,95.63,64.11,92,73.76,88.08c31.87-13,60.65-20.73,95.05-24.32,33.6-3.5,135.9-4.7,169.41-9.08,6.39-.83,15.06-1.3,21-3.56,4.07-1.55,7.62-5.36,7.44-9.71-.93-21.83-49.95-13.23-61.2-13.33-19.23-.19-106.94.2-126.17.22-24.64,0-49.27-.82-73.91-.91-12.37-.05-24.75.09-37.11.66C54.36,28.7,41.38,27.85,32.83,34.13Z"/><path class="cls-9" d="M49.29,45c8.3-2,17.7-1.74,25.78-3.3,12.36-2.38,25-2.5,37.52-2.76,15.4-.31,30.69,1.09,46.1,1.35,29.41.5,127.52.39,156.86.62,13.66.1,26.85,4.81,40.42,6.43,3.94.48,8.09.66,11.71-1s6.49-5.56,5.66-9.44c-1.1-5.2-7.45-7.13-12.74-7.57C335.52,27.32,241.11,31,216,31.47c-26.17.49-52.33-.7-78.48-1.68-30.91-1.15-61.62-1-92.51-.11-4.1.13-8.43.31-11.91,2.5-12.55,7.9-11.2,24.76-11.9,37.44a480.81,480.81,0,0,0,.32,58.07l1.86-35.34c.45-8.47.91-17,3.52-25.11s7.65-15.7,15.18-19.6A32.5,32.5,0,0,1,49.29,45Z"/><path class="cls-10" d="M21,118.54a857,857,0,0,0,140.3,1.23c26.23-2,120.84-5.21,146.86-9,18.39-2.71,48-2,61.34-16.68,4.79-5.3,8.12-11.73,11.35-18.1,2.56,11.44,2.92,22.53,2.26,34.13-.36,6.34-3.12,17.07-1.25,23.17,0,0,3.89,13.61-35.59,17.87S40,153.46,40,153.46,20.24,151,21,118.54Z"/><path class="cls-11" d="M371.66,139.55c3.34-2.93,5-7.76,6.31-12.18.48-1.6,1-5.79-2-5.44-2.17.26-.55,2.67-.79,4-1.13,5.95-1.73,10.57-6.19,15.37A10.84,10.84,0,0,0,371.66,139.55Z"/><path class="cls-11" d="M34,51.79a21.25,21.25,0,0,1,9-2.89c6.42-.63,12.48,1.82,18.77,1.56s12.67-.46,19-1.2c7.39-.88,14.53-3.08,14.6-6.66,0-1.9-1.82-3.76-4.56-5.26C79.13,31,59.31,33,45.3,36.57a44.88,44.88,0,0,0-10,3.77c-1.9,1-6.17,3.76-5.93-.94a6.77,6.77,0,0,1,1.84-3.74,31.08,31.08,0,0,1,3.44-3.54c-.56.34-1.11.67-1.64,1a19.3,19.3,0,0,0-6.32,8.11,58,58,0,0,0-3.06,9.94c-3,12.48-3.1,26.15-3.56,39a296.31,296.31,0,0,1,4.16-30.7,2.94,2.94,0,0,0,3.36-.74C29.93,56.37,30.84,53.7,34,51.79Z"/><path class="cls-11" d="M105,36.66c-3.23,1.6-2.85,5.81,4.12,5.61a8.42,8.42,0,0,0,3.62-.76c2.24-1.22,1.29-3.73-1.23-4.71C108.74,35.73,106.47,35.91,105,36.66Z"/><text class="cls-12" transform="translate(69.66 102.16)">Pl<tspan class="cls-13" x="52.91" y="0">a</tspan><tspan x="80.52" y="0">y Now</tspan></text></g></g></svg>